<?xml version="1.0" encoding="UTF-8" standalone="no"?><svg xmlns="http://www.w3.org/2000/svg" xmlns:xlink="http://www.w3.org/1999/xlink" clip-rule="evenodd" stroke-miterlimit="4.00" viewBox="0 0 1024 768"><desc>SVG generated by Keynote</desc><defs></defs><g transform="matrix(1.00, 0.00, -0.00, -1.00, 0.0, 768.0)"><path d="M 0.0 768.0 L 1024.0 768.0 L 1024.0 0.0 L 0.0 0.0 Z M 0.0 768.0 " fill="#FFFFFF"></path><text xml:space="preserve" font-family="Helvetica-Light" font-size="80.0" fill="#000000" transform="matrix(1.00, 0.00, -0.00, -1.00, 205.0, 618.0)">T</text><text xml:space="preserve" font-family="Helvetica-Light" font-size="80.0" fill="#000000" transform="matrix(1.00, 0.00, -0.00, -1.00, 242.1, 618.0)">r</text><text xml:space="preserve" font-family="Helvetica-Light" font-size="80.0" fill="#000000" transform="matrix(1.00, 0.00, -0.00, -1.00, 267.3, 618.0)">e</text><text xml:space="preserve" font-family="Helvetica-Light" font-size="80.0" fill="#000000" transform="matrix(1.00, 0.00, -0.00, -1.00, 311.8, 618.0)">n</text><text xml:space="preserve" font-family="Helvetica-Light" font-size="80.0" fill="#000000" transform="matrix(1.00, 0.00, -0.00, -1.00, 356.3, 618.0)">d</text><text xml:space="preserve" font-family="Helvetica-Light" font-size="80.0" fill="#000000" transform="matrix(1.00, 0.00, -0.00, -1.00, 405.2, 618.0)"> </text><text xml:space="preserve" font-family="Helvetica-Light" font-size="80.0" fill="#000000" transform="matrix(1.00, 0.00, -0.00, -1.00, 427.4, 618.0)">i</text><text xml:space="preserve" font-family="Helvetica-Light" font-size="80.0" fill="#000000" transform="matrix(1.00, 0.00, -0.00, -1.00, 445.2, 618.0)">n</text><text xml:space="preserve" font-family="Helvetica-Light" font-size="80.0" fill="#000000" transform="matrix(1.00, 0.00, -0.00, -1.00, 489.6, 618.0)"> </text><text xml:space="preserve" font-family="Helvetica-Light" font-size="80.0" fill="#000000" transform="matrix(1.00, 0.00, -0.00, -1.00, 511.9, 618.0)">1</text><text xml:space="preserve" font-family="Helvetica-Light" font-size="80.0" fill="#000000" transform="matrix(1.00, 0.00, -0.00, -1.00, 556.4, 618.0)">0</text><text xml:space="preserve" font-family="Helvetica-Light" font-size="80.0" fill="#000000" transform="matrix(1.00, 0.00, -0.00, -1.00, 600.8, 618.0)"> </text><text xml:space="preserve" font-family="Helvetica-Light" font-size="80.0" fill="#000000" transform="matrix(1.00, 0.00, -0.00, -1.00, 623.1, 618.0)">y</text><text xml:space="preserve" font-family="Helvetica-Light" font-size="80.0" fill="#000000" transform="matrix(1.00, 0.00, -0.00, -1.00, 663.1, 618.0)">e</text><text xml:space="preserve" font-family="Helvetica-Light" font-size="80.0" fill="#000000" transform="matrix(1.00, 0.00, -0.00, -1.00, 707.6, 618.0)">a</text><text xml:space="preserve" font-family="Helvetica-Light" font-size="80.0" fill="#000000" transform="matrix(1.00, 0.00, -0.00, -1.00, 752.0, 618.0)">r</text><text xml:space="preserve" font-family="Helvetica-Light" font-size="80.0" fill="#000000" transform="matrix(1.00, 0.00, -0.00, -1.00, 778.7, 618.0)">s</text><image xlink:href="../../54BE1435-BAD7-4BF5-ADC9-BF8A7AD714B6/assets/3BD820E7B1F7D23E22FEBA07B6328295.png" width="961.00" height="389.00" transform="matrix(1.03, 0.00, -0.00, -1.03, 19.0, 524.0)"></image><image xlink:href="../../54BE1435-BAD7-4BF5-ADC9-BF8A7AD714B6/assets/D6DFD28F9C17D8BED6796F6ABBA36F00.jpeg" width="61.00" height="91.00" transform="matrix(1.00, 0.00, -0.00, -0.99, 801.0, 261.0)"></image><image xlink:href="../../161FB5DD-3FEF-43C5-BDCC-F55DA147F85E/assets/1335F0F581CBA25E140665AEC72FE9C2.png" width="286.00" height="274.00" transform="matrix(0.24, 0.00, -0.00, -0.24, 216.0, 402.0)"></image><image xlink:href="../../54BE1435-BAD7-4BF5-ADC9-BF8A7AD714B6/assets/75D49342B158D0B57D9EA54E654607EC.png" width="101.00" height="101.00" transform="matrix(1.00, 0.00, -0.00, -1.00, 668.0, 403.0)"></image><image xlink:href="../../54BE1435-BAD7-4BF5-ADC9-BF8A7AD714B6/assets/A16B2FF36D40FF67E93B36AB2DB33EE4.png" width="128.00" height="147.00" transform="matrix(1.00, 0.00, -0.00, -1.00, 752.0, 544.0)"></image><path d="M 0.0 0.0 L 56.6 0.0 L 57.6 0.0 " fill="none" stroke="#000000" stroke-width="2.00" transform="matrix(0.94, -0.34, -0.34, -0.94, 747.0, 268.9)"></path><path d="M 802.7 252.5 L 808.0 246.9 L 800.4 246.0 Z M 802.7 252.5 " fill="#000000"></path><path d="M 0.0 0.0 L 46.9 0.0 L 47.9 0.0 " fill="none" stroke="#000000" stroke-width="2.00" transform="matrix(0.71, 0.71, 0.71, -0.71, 639.4, 319.3)"></path><path d="M 671.0 355.8 L 678.3 358.3 L 675.9 351.0 Z M 671.0 355.8 " fill="#000000"></path><image xlink:href="../../54BE1435-BAD7-4BF5-ADC9-BF8A7AD714B6/assets/92AB0363A7AEF44E1BE5DC826A02C861.png" width="66.00" height="66.00" transform="matrix(0.98, 0.00, -0.00, -0.98, 534.0, 290.0)"></image><image xlink:href="../../54BE1435-BAD7-4BF5-ADC9-BF8A7AD714B6/assets/28CB6B777CBFDE3FC637E60713696C56.png" width="101.00" height="85.00" transform="matrix(1.00, 0.00, -0.00, -1.00, 781.0, 170.0)"></image><path d="M 0.0 0.0 L 32.0 0.0 L 33.0 0.0 " fill="none" stroke="#000000" stroke-width="2.00" transform="matrix(0.96, -0.29, -0.29, -0.96, 747.0, 174.1)"></path><path d="M 779.9 167.8 L 785.5 162.5 L 777.9 161.2 Z M 779.9 167.8 " fill="#000000"></path><g><clipPath id="clip-28"><path d="M 114.0 259.0 L 194.0 259.0 L 194.0 194.0 L 114.0 194.0 Z M 114.2 259.3 "></path></clipPath><g clip-path="url(#clip-28)"><image xlink:href="../../54BE1435-BAD7-4BF5-ADC9-BF8A7AD714B6/assets/D57FE4EDB4A1E48215B58899C61138CB.png" width="82.00" height="66.00" transform="matrix(0.99, 0.00, -0.00, -0.98, 114.0, 259.0)"></image></g></g></g></svg>